<?xml version="1.0" standalone="no"?>
<!DOCTYPE svg PUBLIC "-//W3C//DTD SVG 20010904//EN"
 "http://www.w3.org/TR/2001/REC-SVG-20010904/DTD/svg10.dtd">
<svg version="1.0" xmlns="http://www.w3.org/2000/svg"
 width="324.000000pt" height="347.000000pt" viewBox="0 0 324.000000 347.000000"
 preserveAspectRatio="xMidYMid meet">
<metadata>
Created by potrace 1.16, written by Peter Selinger 2001-2019
</metadata>
<g transform="translate(0.000000,347.000000) scale(0.100000,-0.100000)"
fill="#000000" stroke="none">
<path d="M1634 3271 c-61 -44 -479 -472 -500 -511 -12 -24 -18 -56 -19 -101 0
-55 4 -72 26 -105 15 -21 134 -148 266 -281 179 -182 244 -243 262 -243 17 0
65 41 174 148 222 219 254 251 321 326 l61 68 0 82 c0 78 -1 84 -37 131 -34
46 -498 515 -510 515 -3 0 -23 -13 -44 -29z"/>
<path d="M740 2347 c-41 -13 -276 -244 -510 -500 l-44 -48 18 -34 c10 -19 60
-74 110 -123 50 -49 153 -152 229 -230 139 -142 208 -192 266 -192 64 0 131
48 300 213 91 89 203 203 248 254 70 79 81 95 75 117 -8 30 -457 485 -516 523
-45 29 -123 38 -176 20z"/>
<path d="M2441 2338 c-69 -37 -516 -490 -534 -541 -8 -20 43 -77 322 -360 182
-185 236 -222 312 -215 30 3 63 15 87 31 20 15 149 139 285 275 209 211 246
252 240 269 -15 38 -493 521 -538 543 -55 27 -121 26 -174 -2z"/>
<path d="M1401 1303 c-134 -136 -252 -261 -262 -278 -14 -22 -19 -49 -19 -100
0 -96 -8 -85 250 -349 183 -188 287 -286 302 -286 15 0 451 428 512 503 38 47
40 51 40 127 1 69 -2 82 -27 116 -15 22 -134 146 -264 277 -182 181 -244 237
-263 237 -20 1 -77 -52 -269 -247z"/>
</g>
</svg>
